<svg id="visual" viewBox="0 0 900 600" width="900" height="600" xmlns="http://www.w3.org/2000/svg" xmlns:xlink="http://www.w3.org/1999/xlink" version="1.1"><path d="M861 600L868 600L868 571L867 571L867 543L856 543L856 514L861 514L861 486L869 486L869 457L856 457L856 429L863 429L863 400L856 400L856 371L855 371L855 343L850 343L850 314L868 314L868 286L847 286L847 257L853 257L853 229L860 229L860 200L855 200L855 171L843 171L843 143L860 143L860 114L844 114L844 86L845 86L845 57L869 57L869 29L853 29L853 0L900 0L900 29L900 29L900 57L900 57L900 86L900 86L900 114L900 114L900 143L900 143L900 171L900 171L900 200L900 200L900 229L900 229L900 257L900 257L900 286L900 286L900 314L900 314L900 343L900 343L900 371L900 371L900 400L900 400L900 429L900 429L900 457L900 457L900 486L900 486L900 514L900 514L900 543L900 543L900 571L900 571L900 600L900 600Z" fill="#b8a48f" stroke-linecap="square" stroke-linejoin="miter"></path></svg>