<svg id="visual" viewBox="0 0 100 150" width="100" height="150" xmlns="http://www.w3.org/2000/svg" xmlns:xlink="http://www.w3.org/1999/xlink" version="1.1"><rect x="0" y="0" width="100" height="150" fill="#b25544"></rect><path d="M81 150L87 150L87 140L92 140L92 130L93 130L93 120L69 120L69 110L88 110L88 100L77 100L77 90L91 90L91 80L81 80L81 70L81 70L81 60L93 60L93 50L70 50L70 40L75 40L75 30L85 30L85 20L82 20L82 10L82 10L82 0L100 0L100 10L100 10L100 20L100 20L100 30L100 30L100 40L100 40L100 50L100 50L100 60L100 60L100 70L100 70L100 80L100 80L100 90L100 90L100 100L100 100L100 110L100 110L100 120L100 120L100 130L100 130L100 140L100 140L100 150L100 150Z" fill="#fde1c0" stroke-linecap="square" stroke-linejoin="miter"></path></svg>